<svg xmlns="http://www.w3.org/2000/svg" version="1.1" xmlns:xlink="http://www.w3.org/1999/xlink" xmlns:svgjs="http://svgjs.dev/svgjs" width="1440" height="560" preserveAspectRatio="none" viewBox="0 0 1440 560"><g mask="url(&quot;#SvgjsMask1000&quot;)" fill="none"><rect width="1440" height="560" x="0" y="0" fill="#0e2a47"></rect><path d="M77.12 93.59L142.08 131.09L142.08 206.09L77.12 243.59L12.17 206.09L12.17 131.09zM12.17 206.09L77.12 243.59L77.12 318.59L12.17 356.09L-52.78 318.59L-52.78 243.59zM142.08 -18.91L207.03 18.59L207.03 93.59L142.08 131.09L77.12 93.59L77.12 18.59zM271.99 -18.91L336.94 18.59L336.94 93.59L271.99 131.09L207.03 93.59L207.03 18.59zM401.89 206.09L466.85 243.59L466.85 318.59L401.89 356.09L336.94 318.59L336.94 243.59zM531.8 431.09L596.75 468.59L596.75 543.59L531.8 581.09L466.85 543.59L466.85 468.59zM596.75 543.59L661.71 581.09L661.71 656.09L596.75 693.59L531.8 656.09L531.8 581.09zM661.71 206.09L726.66 243.59L726.66 318.59L661.71 356.09L596.75 318.59L596.75 243.59zM726.66 318.59L791.62 356.09L791.62 431.09L726.66 468.59L661.71 431.09L661.71 356.09zM791.61 -18.91L856.57 18.59L856.57 93.59L791.61 131.09L726.66 93.59L726.66 18.59zM791.61 206.09L856.57 243.59L856.57 318.59L791.61 356.09L726.66 318.59L726.66 243.59zM856.57 318.59L921.52 356.09L921.52 431.09L856.57 468.59L791.61 431.09L791.61 356.09zM791.61 431.09L856.57 468.59L856.57 543.59L791.61 581.09L726.66 543.59L726.66 468.59zM986.48 93.59L1051.43 131.09L1051.43 206.09L986.48 243.59L921.52 206.09L921.52 131.09zM986.48 318.59L1051.43 356.09L1051.43 431.09L986.48 468.59L921.52 431.09L921.52 356.09zM921.52 431.09L986.48 468.59L986.48 543.59L921.52 581.09L856.57 543.59L856.57 468.59zM1051.43 -18.91L1116.38 18.59L1116.38 93.59L1051.43 131.09L986.48 93.59L986.48 18.59zM1116.38 318.59L1181.34 356.09L1181.34 431.09L1116.38 468.59L1051.43 431.09L1051.43 356.09zM1246.29 318.59L1311.24 356.09L1311.24 431.09L1246.29 468.59L1181.34 431.09L1181.34 356.09zM1181.34 431.09L1246.29 468.59L1246.29 543.59L1181.34 581.09L1116.38 543.59L1116.38 468.59zM1246.29 543.59L1311.24 581.09L1311.24 656.09L1246.29 693.59L1181.34 656.09L1181.34 581.09zM1311.25 -18.91L1376.2 18.59L1376.2 93.59L1311.25 131.09L1246.29 93.59L1246.29 18.59zM1311.25 206.09L1376.2 243.59L1376.2 318.59L1311.25 356.09L1246.29 318.59L1246.29 243.59zM1506.11 93.59L1571.06 131.09L1571.06 206.09L1506.11 243.59L1441.15 206.09L1441.15 131.09zM1506.11 318.59L1571.06 356.09L1571.06 431.09L1506.11 468.59L1441.15 431.09L1441.15 356.09zM1506.11 543.59L1571.06 581.09L1571.06 656.09L1506.11 693.59L1441.15 656.09L1441.15 581.09z" stroke="#03305d" stroke-width="2"></path><path d="M69.62 93.59 a7.5 7.5 0 1 0 15 0 a7.5 7.5 0 1 0 -15 0zM134.58 131.09 a7.5 7.5 0 1 0 15 0 a7.5 7.5 0 1 0 -15 0zM134.58 206.09 a7.5 7.5 0 1 0 15 0 a7.5 7.5 0 1 0 -15 0zM69.62 243.59 a7.5 7.5 0 1 0 15 0 a7.5 7.5 0 1 0 -15 0zM4.67 206.09 a7.5 7.5 0 1 0 15 0 a7.5 7.5 0 1 0 -15 0zM4.67 131.09 a7.5 7.5 0 1 0 15 0 a7.5 7.5 0 1 0 -15 0zM69.62 318.59 a7.5 7.5 0 1 0 15 0 a7.5 7.5 0 1 0 -15 0zM4.67 356.09 a7.5 7.5 0 1 0 15 0 a7.5 7.5 0 1 0 -15 0zM-60.28 318.59 a7.5 7.5 0 1 0 15 0 a7.5 7.5 0 1 0 -15 0zM-60.28 243.59 a7.5 7.5 0 1 0 15 0 a7.5 7.5 0 1 0 -15 0zM134.58 -18.91 a7.5 7.5 0 1 0 15 0 a7.5 7.5 0 1 0 -15 0zM199.53 18.59 a7.5 7.5 0 1 0 15 0 a7.5 7.5 0 1 0 -15 0zM199.53 93.59 a7.5 7.5 0 1 0 15 0 a7.5 7.5 0 1 0 -15 0zM69.62 18.59 a7.5 7.5 0 1 0 15 0 a7.5 7.5 0 1 0 -15 0zM264.49 -18.91 a7.5 7.5 0 1 0 15 0 a7.5 7.5 0 1 0 -15 0zM329.44 18.59 a7.5 7.5 0 1 0 15 0 a7.5 7.5 0 1 0 -15 0zM329.44 93.59 a7.5 7.5 0 1 0 15 0 a7.5 7.5 0 1 0 -15 0zM264.49 131.09 a7.5 7.5 0 1 0 15 0 a7.5 7.5 0 1 0 -15 0zM394.39 206.09 a7.5 7.5 0 1 0 15 0 a7.5 7.5 0 1 0 -15 0zM459.35 243.59 a7.5 7.5 0 1 0 15 0 a7.5 7.5 0 1 0 -15 0zM459.35 318.59 a7.5 7.5 0 1 0 15 0 a7.5 7.5 0 1 0 -15 0zM394.39 356.09 a7.5 7.5 0 1 0 15 0 a7.5 7.5 0 1 0 -15 0zM329.44 318.59 a7.5 7.5 0 1 0 15 0 a7.5 7.5 0 1 0 -15 0zM329.44 243.59 a7.5 7.5 0 1 0 15 0 a7.5 7.5 0 1 0 -15 0zM524.3 431.09 a7.5 7.5 0 1 0 15 0 a7.5 7.5 0 1 0 -15 0zM589.25 468.59 a7.5 7.5 0 1 0 15 0 a7.5 7.5 0 1 0 -15 0zM589.25 543.59 a7.5 7.5 0 1 0 15 0 a7.5 7.5 0 1 0 -15 0zM524.3 581.09 a7.5 7.5 0 1 0 15 0 a7.5 7.5 0 1 0 -15 0zM459.35 543.59 a7.5 7.5 0 1 0 15 0 a7.5 7.5 0 1 0 -15 0zM459.35 468.59 a7.5 7.5 0 1 0 15 0 a7.5 7.5 0 1 0 -15 0zM654.21 581.09 a7.5 7.5 0 1 0 15 0 a7.5 7.5 0 1 0 -15 0zM654.21 656.09 a7.5 7.5 0 1 0 15 0 a7.5 7.5 0 1 0 -15 0zM589.25 693.59 a7.5 7.5 0 1 0 15 0 a7.5 7.5 0 1 0 -15 0zM524.3 656.09 a7.5 7.5 0 1 0 15 0 a7.5 7.5 0 1 0 -15 0zM654.21 206.09 a7.5 7.5 0 1 0 15 0 a7.5 7.5 0 1 0 -15 0zM719.16 243.59 a7.5 7.5 0 1 0 15 0 a7.5 7.5 0 1 0 -15 0zM719.16 318.59 a7.5 7.5 0 1 0 15 0 a7.5 7.5 0 1 0 -15 0zM654.21 356.09 a7.5 7.5 0 1 0 15 0 a7.5 7.5 0 1 0 -15 0zM589.25 318.59 a7.5 7.5 0 1 0 15 0 a7.5 7.5 0 1 0 -15 0zM589.25 243.59 a7.5 7.5 0 1 0 15 0 a7.5 7.5 0 1 0 -15 0zM784.12 356.09 a7.5 7.5 0 1 0 15 0 a7.5 7.5 0 1 0 -15 0zM784.12 431.09 a7.5 7.5 0 1 0 15 0 a7.5 7.5 0 1 0 -15 0zM719.16 468.59 a7.5 7.5 0 1 0 15 0 a7.5 7.5 0 1 0 -15 0zM654.21 431.09 a7.5 7.5 0 1 0 15 0 a7.5 7.5 0 1 0 -15 0zM784.11 -18.91 a7.5 7.5 0 1 0 15 0 a7.5 7.5 0 1 0 -15 0zM849.07 18.59 a7.5 7.5 0 1 0 15 0 a7.5 7.5 0 1 0 -15 0zM849.07 93.59 a7.5 7.5 0 1 0 15 0 a7.5 7.5 0 1 0 -15 0zM784.11 131.09 a7.5 7.5 0 1 0 15 0 a7.5 7.5 0 1 0 -15 0zM719.16 93.59 a7.5 7.5 0 1 0 15 0 a7.5 7.5 0 1 0 -15 0zM719.16 18.59 a7.5 7.5 0 1 0 15 0 a7.5 7.5 0 1 0 -15 0zM784.11 206.09 a7.5 7.5 0 1 0 15 0 a7.5 7.5 0 1 0 -15 0zM849.07 243.59 a7.5 7.5 0 1 0 15 0 a7.5 7.5 0 1 0 -15 0zM849.07 318.59 a7.5 7.5 0 1 0 15 0 a7.5 7.5 0 1 0 -15 0zM784.11 356.09 a7.5 7.5 0 1 0 15 0 a7.5 7.5 0 1 0 -15 0zM914.02 356.09 a7.5 7.5 0 1 0 15 0 a7.5 7.5 0 1 0 -15 0zM914.02 431.09 a7.5 7.5 0 1 0 15 0 a7.5 7.5 0 1 0 -15 0zM849.07 468.59 a7.5 7.5 0 1 0 15 0 a7.5 7.5 0 1 0 -15 0zM784.11 431.09 a7.5 7.5 0 1 0 15 0 a7.5 7.5 0 1 0 -15 0zM849.07 543.59 a7.5 7.5 0 1 0 15 0 a7.5 7.5 0 1 0 -15 0zM784.11 581.09 a7.5 7.5 0 1 0 15 0 a7.5 7.5 0 1 0 -15 0zM719.16 543.59 a7.5 7.5 0 1 0 15 0 a7.5 7.5 0 1 0 -15 0zM978.98 93.59 a7.5 7.5 0 1 0 15 0 a7.5 7.5 0 1 0 -15 0zM1043.93 131.09 a7.5 7.5 0 1 0 15 0 a7.5 7.5 0 1 0 -15 0zM1043.93 206.09 a7.5 7.5 0 1 0 15 0 a7.5 7.5 0 1 0 -15 0zM978.98 243.59 a7.5 7.5 0 1 0 15 0 a7.5 7.5 0 1 0 -15 0zM914.02 206.09 a7.5 7.5 0 1 0 15 0 a7.5 7.5 0 1 0 -15 0zM914.02 131.09 a7.5 7.5 0 1 0 15 0 a7.5 7.5 0 1 0 -15 0zM978.98 318.59 a7.5 7.5 0 1 0 15 0 a7.5 7.5 0 1 0 -15 0zM1043.93 356.09 a7.5 7.5 0 1 0 15 0 a7.5 7.5 0 1 0 -15 0zM1043.93 431.09 a7.5 7.5 0 1 0 15 0 a7.5 7.5 0 1 0 -15 0zM978.98 468.59 a7.5 7.5 0 1 0 15 0 a7.5 7.5 0 1 0 -15 0zM978.98 543.59 a7.5 7.5 0 1 0 15 0 a7.5 7.5 0 1 0 -15 0zM914.02 581.09 a7.5 7.5 0 1 0 15 0 a7.5 7.5 0 1 0 -15 0zM1043.93 -18.91 a7.5 7.5 0 1 0 15 0 a7.5 7.5 0 1 0 -15 0zM1108.88 18.59 a7.5 7.5 0 1 0 15 0 a7.5 7.5 0 1 0 -15 0zM1108.88 93.59 a7.5 7.5 0 1 0 15 0 a7.5 7.5 0 1 0 -15 0zM978.98 18.59 a7.5 7.5 0 1 0 15 0 a7.5 7.5 0 1 0 -15 0zM1108.88 318.59 a7.5 7.5 0 1 0 15 0 a7.5 7.5 0 1 0 -15 0zM1173.84 356.09 a7.5 7.5 0 1 0 15 0 a7.5 7.5 0 1 0 -15 0zM1173.84 431.09 a7.5 7.5 0 1 0 15 0 a7.5 7.5 0 1 0 -15 0zM1108.88 468.59 a7.5 7.5 0 1 0 15 0 a7.5 7.5 0 1 0 -15 0zM1238.79 318.59 a7.5 7.5 0 1 0 15 0 a7.5 7.5 0 1 0 -15 0zM1303.74 356.09 a7.5 7.5 0 1 0 15 0 a7.5 7.5 0 1 0 -15 0zM1303.74 431.09 a7.5 7.5 0 1 0 15 0 a7.5 7.5 0 1 0 -15 0zM1238.79 468.59 a7.5 7.5 0 1 0 15 0 a7.5 7.5 0 1 0 -15 0zM1238.79 543.59 a7.5 7.5 0 1 0 15 0 a7.5 7.5 0 1 0 -15 0zM1173.84 581.09 a7.5 7.5 0 1 0 15 0 a7.5 7.5 0 1 0 -15 0zM1108.88 543.59 a7.5 7.5 0 1 0 15 0 a7.5 7.5 0 1 0 -15 0zM1303.74 581.09 a7.5 7.5 0 1 0 15 0 a7.5 7.5 0 1 0 -15 0zM1303.74 656.09 a7.5 7.5 0 1 0 15 0 a7.5 7.5 0 1 0 -15 0zM1238.79 693.59 a7.5 7.5 0 1 0 15 0 a7.5 7.5 0 1 0 -15 0zM1173.84 656.09 a7.5 7.5 0 1 0 15 0 a7.5 7.5 0 1 0 -15 0zM1303.75 -18.91 a7.5 7.5 0 1 0 15 0 a7.5 7.5 0 1 0 -15 0zM1368.7 18.59 a7.5 7.5 0 1 0 15 0 a7.5 7.5 0 1 0 -15 0zM1368.7 93.59 a7.5 7.5 0 1 0 15 0 a7.5 7.5 0 1 0 -15 0zM1303.75 131.09 a7.5 7.5 0 1 0 15 0 a7.5 7.5 0 1 0 -15 0zM1238.79 93.59 a7.5 7.5 0 1 0 15 0 a7.5 7.5 0 1 0 -15 0zM1238.79 18.59 a7.5 7.5 0 1 0 15 0 a7.5 7.5 0 1 0 -15 0zM1303.75 206.09 a7.5 7.5 0 1 0 15 0 a7.5 7.5 0 1 0 -15 0zM1368.7 243.59 a7.5 7.5 0 1 0 15 0 a7.5 7.5 0 1 0 -15 0zM1368.7 318.59 a7.5 7.5 0 1 0 15 0 a7.5 7.5 0 1 0 -15 0zM1303.75 356.09 a7.5 7.5 0 1 0 15 0 a7.5 7.5 0 1 0 -15 0zM1238.79 243.59 a7.5 7.5 0 1 0 15 0 a7.5 7.5 0 1 0 -15 0zM1498.61 93.59 a7.5 7.5 0 1 0 15 0 a7.5 7.5 0 1 0 -15 0zM1563.56 131.09 a7.5 7.5 0 1 0 15 0 a7.5 7.5 0 1 0 -15 0zM1563.56 206.09 a7.5 7.5 0 1 0 15 0 a7.5 7.5 0 1 0 -15 0zM1498.61 243.59 a7.5 7.5 0 1 0 15 0 a7.5 7.5 0 1 0 -15 0zM1433.65 206.09 a7.5 7.5 0 1 0 15 0 a7.5 7.5 0 1 0 -15 0zM1433.65 131.09 a7.5 7.5 0 1 0 15 0 a7.5 7.5 0 1 0 -15 0zM1498.61 318.59 a7.5 7.5 0 1 0 15 0 a7.5 7.5 0 1 0 -15 0zM1563.56 356.09 a7.5 7.5 0 1 0 15 0 a7.5 7.5 0 1 0 -15 0zM1563.56 431.09 a7.5 7.5 0 1 0 15 0 a7.5 7.5 0 1 0 -15 0zM1498.61 468.59 a7.5 7.5 0 1 0 15 0 a7.5 7.5 0 1 0 -15 0zM1433.65 431.09 a7.5 7.5 0 1 0 15 0 a7.5 7.5 0 1 0 -15 0zM1433.65 356.09 a7.5 7.5 0 1 0 15 0 a7.5 7.5 0 1 0 -15 0zM1498.61 543.59 a7.5 7.5 0 1 0 15 0 a7.5 7.5 0 1 0 -15 0zM1563.56 581.09 a7.5 7.5 0 1 0 15 0 a7.5 7.5 0 1 0 -15 0zM1563.56 656.09 a7.5 7.5 0 1 0 15 0 a7.5 7.5 0 1 0 -15 0zM1498.61 693.59 a7.5 7.5 0 1 0 15 0 a7.5 7.5 0 1 0 -15 0zM1433.65 656.09 a7.5 7.5 0 1 0 15 0 a7.5 7.5 0 1 0 -15 0zM1433.65 581.09 a7.5 7.5 0 1 0 15 0 a7.5 7.5 0 1 0 -15 0z" fill="#03305d"></path><path d="M43.92 273.23L87.22 298.23L87.22 348.23L43.92 373.23L0.62 348.23L0.62 298.23zM173.83 198.23L217.13 223.23L217.13 273.23L173.83 298.23L130.53 273.23L130.53 223.23zM173.83 498.23L217.13 523.23L217.13 573.23L173.83 598.23L130.53 573.23L130.53 523.23zM217.13 273.23L260.43 298.23L260.43 348.23L217.13 373.23L173.83 348.23L173.83 298.23zM303.74 -26.77L347.04 -1.77L347.04 48.23L303.74 73.23L260.43 48.23L260.43 -1.77zM433.64 198.23L476.95 223.23L476.95 273.23L433.64 298.23L390.34 273.23L390.34 223.23zM390.34 273.23L433.64 298.23L433.64 348.23L390.34 373.23L347.04 348.23L347.04 298.23zM433.64 348.23L476.95 373.23L476.95 423.23L433.64 448.23L390.34 423.23L390.34 373.23zM476.95 123.23L520.25 148.23L520.25 198.23L476.95 223.23L433.64 198.23L433.64 148.23zM520.25 348.23L563.55 373.23L563.55 423.23L520.25 448.23L476.95 423.23L476.95 373.23zM520.25 498.23L563.55 523.23L563.55 573.23L520.25 598.23L476.95 573.23L476.95 523.23zM563.55 123.23L606.85 148.23L606.85 198.23L563.55 223.23L520.25 198.23L520.25 148.23zM606.85 198.23L650.15 223.23L650.15 273.23L606.85 298.23L563.55 273.23L563.55 223.23zM563.55 273.23L606.85 298.23L606.85 348.23L563.55 373.23L520.25 348.23L520.25 298.23zM606.85 348.23L650.15 373.23L650.15 423.23L606.85 448.23L563.55 423.23L563.55 373.23zM693.46 198.23L736.76 223.23L736.76 273.23L693.46 298.23L650.15 273.23L650.15 223.23zM650.15 273.23L693.46 298.23L693.46 348.23L650.15 373.23L606.85 348.23L606.85 298.23zM650.15 423.23L693.46 448.23L693.46 498.23L650.15 523.23L606.85 498.23L606.85 448.23zM693.46 498.23L736.76 523.23L736.76 573.23L693.46 598.23L650.15 573.23L650.15 523.23zM736.76 273.23L780.06 298.23L780.06 348.23L736.76 373.23L693.46 348.23L693.46 298.23zM780.06 348.23L823.37 373.23L823.37 423.23L780.06 448.23L736.76 423.23L736.76 373.23zM780.06 498.23L823.37 523.23L823.37 573.23L780.06 598.23L736.76 573.23L736.76 523.23zM823.37 273.23L866.67 298.23L866.67 348.23L823.37 373.23L780.06 348.23L780.06 298.23zM909.97 -26.77L953.27 -1.77L953.27 48.23L909.97 73.23L866.67 48.23L866.67 -1.77zM953.27 48.23L996.58 73.23L996.58 123.23L953.27 148.23L909.97 123.23L909.97 73.23zM953.27 198.23L996.58 223.23L996.58 273.23L953.27 298.23L909.97 273.23L909.97 223.23zM1039.88 498.23L1083.18 523.23L1083.18 573.23L1039.88 598.23L996.58 573.23L996.58 523.23zM1126.48 498.23L1169.79 523.23L1169.79 573.23L1126.48 598.23L1083.18 573.23L1083.18 523.23zM1213.09 198.23L1256.39 223.23L1256.39 273.23L1213.09 298.23L1169.79 273.23L1169.79 223.23zM1169.79 423.23L1213.09 448.23L1213.09 498.23L1169.79 523.23L1126.48 498.23L1126.48 448.23zM1299.69 348.23L1343 373.23L1343 423.23L1299.69 448.23L1256.39 423.23L1256.39 373.23zM1343 273.23L1386.3 298.23L1386.3 348.23L1343 373.23L1299.69 348.23L1299.69 298.23zM1386.3 348.23L1429.6 373.23L1429.6 423.23L1386.3 448.23L1343 423.23L1343 373.23zM1343 423.23L1386.3 448.23L1386.3 498.23L1343 523.23L1299.69 498.23L1299.69 448.23zM1472.9 198.23L1516.21 223.23L1516.21 273.23L1472.9 298.23L1429.6 273.23L1429.6 223.23z" stroke="rgba(6, 80, 156, 0.93)" stroke-width="2"></path></g><defs><mask id="SvgjsMask1000"><rect width="1440" height="560" fill="#ffffff"></rect></mask></defs></svg>