<svg xmlns="http://www.w3.org/2000/svg" version="1.1" xmlns:xlink="http://www.w3.org/1999/xlink" xmlns:svgjs="http://svgjs.dev/svgjs" width="1440" height="560" preserveAspectRatio="none" viewBox="0 0 1440 560"><g mask="url(&quot;#SvgjsMask1000&quot;)" fill="none"><rect width="1440" height="560" x="0" y="0" fill="#0e2a47"></rect><path d="M-106.31 537.87L-106.31 537.87" stroke="#132e65" stroke-width="1.5"></path><path d="M-106.31 537.87L-110.08 647.62" stroke="#132e65" stroke-width="1.5"></path><path d="M-106.31 537.87L89.44 509.12" stroke="#132e65" stroke-width="1.5"></path><path d="M-106.31 537.87L56 355.4" stroke="#132e65" stroke-width="1.5"></path><path d="M-106.31 537.87L106.74 669.36" stroke="#132e65" stroke-width="1.5"></path><path d="M-106.31 537.87L221.77 497.12" stroke="#132e65" stroke-width="1.5"></path><path d="M-106.31 537.87L203.36 388.68" stroke="#132e65" stroke-width="1.5"></path><path d="M-110.08 647.62L-110.08 647.62" stroke="#132e65" stroke-width="1.5"></path><path d="M-110.08 647.62L106.74 669.36" stroke="#132e65" stroke-width="1.5"></path><path d="M-110.08 647.62L89.44 509.12" stroke="#132e65" stroke-width="1.5"></path><path d="M-110.08 647.62L56 355.4" stroke="#132e65" stroke-width="1.5"></path><path d="M56 355.4L56 355.4" stroke="#132e65" stroke-width="1.5"></path><path d="M56 355.4L203.36 388.68" stroke="#132e65" stroke-width="1.5"></path><path d="M56 355.4L89.44 509.12" stroke="#132e65" stroke-width="1.5"></path><path d="M56 355.4L221.77 497.12" stroke="#132e65" stroke-width="1.5"></path><path d="M89.44 509.12L89.44 509.12" stroke="#132e65" stroke-width="1.5"></path><path d="M89.44 509.12L221.77 497.12" stroke="#132e65" stroke-width="1.5"></path><path d="M89.44 509.12L106.74 669.36" stroke="#132e65" stroke-width="1.5"></path><path d="M89.44 509.12L203.36 388.68" stroke="#132e65" stroke-width="1.5"></path><path d="M106.74 669.36L106.74 669.36" stroke="#132e65" stroke-width="1.5"></path><path d="M106.74 669.36L221.77 497.12" stroke="#132e65" stroke-width="1.5"></path><path d="M106.74 669.36L367.1 682.31" stroke="#132e65" stroke-width="1.5"></path><path d="M203.36 388.68L203.36 388.68" stroke="#132e65" stroke-width="1.5"></path><path d="M203.36 388.68L221.77 497.12" stroke="#132e65" stroke-width="1.5"></path><path d="M221.77 497.12L221.77 497.12" stroke="#132e65" stroke-width="1.5"></path><path d="M221.77 497.12L340.73 548.03" stroke="#132e65" stroke-width="1.5"></path><path d="M373.57 350.66L373.57 350.66" stroke="#132e65" stroke-width="1.5"></path><path d="M373.57 350.66L501.05 346.23" stroke="#132e65" stroke-width="1.5"></path><path d="M373.57 350.66L203.36 388.68" stroke="#132e65" stroke-width="1.5"></path><path d="M373.57 350.66L340.73 548.03" stroke="#132e65" stroke-width="1.5"></path><path d="M373.57 350.66L221.77 497.12" stroke="#132e65" stroke-width="1.5"></path><path d="M373.57 350.66L555.35 498.56" stroke="#132e65" stroke-width="1.5"></path><path d="M373.57 350.66L654.1 355.21" stroke="#132e65" stroke-width="1.5"></path><path d="M340.73 548.03L340.73 548.03" stroke="#132e65" stroke-width="1.5"></path><path d="M340.73 548.03L367.1 682.31" stroke="#132e65" stroke-width="1.5"></path><path d="M340.73 548.03L203.36 388.68" stroke="#132e65" stroke-width="1.5"></path><path d="M340.73 548.03L555.35 498.56" stroke="#132e65" stroke-width="1.5"></path><path d="M340.73 548.03L89.44 509.12" stroke="#132e65" stroke-width="1.5"></path><path d="M367.1 682.31L367.1 682.31" stroke="#132e65" stroke-width="1.5"></path><path d="M367.1 682.31L221.77 497.12" stroke="#132e65" stroke-width="1.5"></path><path d="M367.1 682.31L555.35 498.56" stroke="#132e65" stroke-width="1.5"></path><path d="M501.05 346.23L501.05 346.23" stroke="#132e65" stroke-width="1.5"></path><path d="M501.05 346.23L654.1 355.21" stroke="#132e65" stroke-width="1.5"></path><path d="M501.05 346.23L555.35 498.56" stroke="#132e65" stroke-width="1.5"></path><path d="M555.35 498.56L555.35 498.56" stroke="#132e65" stroke-width="1.5"></path><path d="M555.35 498.56L678.4 550.74" stroke="#132e65" stroke-width="1.5"></path><path d="M654.1 355.21L654.1 355.21" stroke="#132e65" stroke-width="1.5"></path><path d="M678.4 550.74L678.4 550.74" stroke="#132e65" stroke-width="1.5"></path><path d="M678.4 550.74L668.17 675.08" stroke="#132e65" stroke-width="1.5"></path><path d="M668.17 675.08L668.17 675.08" stroke="#132e65" stroke-width="1.5"></path><path d="M668.17 675.08L841.21 680.46" stroke="#132e65" stroke-width="1.5"></path><path d="M668.17 675.08L555.35 498.56" stroke="#132e65" stroke-width="1.5"></path><path d="M668.17 675.08L860.17 561.12" stroke="#132e65" stroke-width="1.5"></path><path d="M668.17 675.08L367.1 682.31" stroke="#132e65" stroke-width="1.5"></path><path d="M668.17 675.08L986.86 682.05" stroke="#132e65" stroke-width="1.5"></path><path d="M832.43 105.58L832.43 105.58" stroke="#132e65" stroke-width="1.5"></path><path d="M832.43 105.58L968.09 40.88" stroke="#132e65" stroke-width="1.5"></path><path d="M832.43 105.58L973.23 194.91" stroke="#132e65" stroke-width="1.5"></path><path d="M832.43 105.58L1009.6 -51.73" stroke="#132e65" stroke-width="1.5"></path><path d="M819.57 392.96L819.57 392.96" stroke="#132e65" stroke-width="1.5"></path><path d="M819.57 392.96L940.47 388.96" stroke="#132e65" stroke-width="1.5"></path><path d="M819.57 392.96L654.1 355.21" stroke="#132e65" stroke-width="1.5"></path><path d="M819.57 392.96L860.17 561.12" stroke="#132e65" stroke-width="1.5"></path><path d="M860.17 561.12L860.17 561.12" stroke="#132e65" stroke-width="1.5"></path><path d="M860.17 561.12L841.21 680.46" stroke="#132e65" stroke-width="1.5"></path><path d="M841.21 680.46L841.21 680.46" stroke="#132e65" stroke-width="1.5"></path><path d="M1009.6 -51.73L1009.6 -51.73" stroke="#132e65" stroke-width="1.5"></path><path d="M1009.6 -51.73L968.09 40.88" stroke="#132e65" stroke-width="1.5"></path><path d="M1009.6 -51.73L1132.78 -68.5" stroke="#132e65" stroke-width="1.5"></path><path d="M968.09 40.88L968.09 40.88" stroke="#132e65" stroke-width="1.5"></path><path d="M973.23 194.91L973.23 194.91" stroke="#132e65" stroke-width="1.5"></path><path d="M973.23 194.91L1099.75 258.26" stroke="#132e65" stroke-width="1.5"></path><path d="M940.47 388.96L940.47 388.96" stroke="#132e65" stroke-width="1.5"></path><path d="M940.47 388.96L860.17 561.12" stroke="#132e65" stroke-width="1.5"></path><path d="M940.47 388.96L1133.18 408.25" stroke="#132e65" stroke-width="1.5"></path><path d="M940.47 388.96L973.23 194.91" stroke="#132e65" stroke-width="1.5"></path><path d="M940.47 388.96L1099.75 258.26" stroke="#132e65" stroke-width="1.5"></path><path d="M986.86 682.05L986.86 682.05" stroke="#132e65" stroke-width="1.5"></path><path d="M986.86 682.05L1122.28 711.43" stroke="#132e65" stroke-width="1.5"></path><path d="M986.86 682.05L841.21 680.46" stroke="#132e65" stroke-width="1.5"></path><path d="M986.86 682.05L860.17 561.12" stroke="#132e65" stroke-width="1.5"></path><path d="M986.86 682.05L1120.56 499.86" stroke="#132e65" stroke-width="1.5"></path><path d="M986.86 682.05L1275.6 696.1" stroke="#132e65" stroke-width="1.5"></path><path d="M986.86 682.05L940.47 388.96" stroke="#132e65" stroke-width="1.5"></path><path d="M1132.78 -68.5L1132.78 -68.5" stroke="#132e65" stroke-width="1.5"></path><path d="M1132.78 -68.5L1240.33 -63.46" stroke="#132e65" stroke-width="1.5"></path><path d="M1119.99 80.08L1119.99 80.08" stroke="#132e65" stroke-width="1.5"></path><path d="M1119.99 80.08L1260.94 83.52" stroke="#132e65" stroke-width="1.5"></path><path d="M1119.99 80.08L1132.78 -68.5" stroke="#132e65" stroke-width="1.5"></path><path d="M1099.75 258.26L1099.75 258.26" stroke="#132e65" stroke-width="1.5"></path><path d="M1099.75 258.26L1133.18 408.25" stroke="#132e65" stroke-width="1.5"></path><path d="M1099.75 258.26L1253.8 235.09" stroke="#132e65" stroke-width="1.5"></path><path d="M1099.75 258.26L1119.99 80.08" stroke="#132e65" stroke-width="1.5"></path><path d="M1099.75 258.26L1257.11 373.43" stroke="#132e65" stroke-width="1.5"></path><path d="M1133.18 408.25L1133.18 408.25" stroke="#132e65" stroke-width="1.5"></path><path d="M1133.18 408.25L1120.56 499.86" stroke="#132e65" stroke-width="1.5"></path><path d="M1133.18 408.25L1257.11 373.43" stroke="#132e65" stroke-width="1.5"></path><path d="M1133.18 408.25L1257.29 544.41" stroke="#132e65" stroke-width="1.5"></path><path d="M1120.56 499.86L1120.56 499.86" stroke="#132e65" stroke-width="1.5"></path><path d="M1120.56 499.86L1257.29 544.41" stroke="#132e65" stroke-width="1.5"></path><path d="M1120.56 499.86L1257.11 373.43" stroke="#132e65" stroke-width="1.5"></path><path d="M1122.28 711.43L1122.28 711.43" stroke="#132e65" stroke-width="1.5"></path><path d="M1122.28 711.43L1275.6 696.1" stroke="#132e65" stroke-width="1.5"></path><path d="M1122.28 711.43L1120.56 499.86" stroke="#132e65" stroke-width="1.5"></path><path d="M1122.28 711.43L1257.29 544.41" stroke="#132e65" stroke-width="1.5"></path><path d="M1122.28 711.43L841.21 680.46" stroke="#132e65" stroke-width="1.5"></path><path d="M1240.33 -63.46L1240.33 -63.46" stroke="#132e65" stroke-width="1.5"></path><path d="M1240.33 -63.46L1260.94 83.52" stroke="#132e65" stroke-width="1.5"></path><path d="M1260.94 83.52L1260.94 83.52" stroke="#132e65" stroke-width="1.5"></path><path d="M1260.94 83.52L1253.8 235.09" stroke="#132e65" stroke-width="1.5"></path><path d="M1253.8 235.09L1253.8 235.09" stroke="#132e65" stroke-width="1.5"></path><path d="M1253.8 235.09L1257.11 373.43" stroke="#132e65" stroke-width="1.5"></path><path d="M1257.11 373.43L1257.11 373.43" stroke="#132e65" stroke-width="1.5"></path><path d="M1257.11 373.43L1390.66 358.36" stroke="#132e65" stroke-width="1.5"></path><path d="M1257.11 373.43L1257.29 544.41" stroke="#132e65" stroke-width="1.5"></path><path d="M1257.29 544.41L1257.29 544.41" stroke="#132e65" stroke-width="1.5"></path><path d="M1257.29 544.41L1403.1 558.62" stroke="#132e65" stroke-width="1.5"></path><path d="M1257.29 544.41L1275.6 696.1" stroke="#132e65" stroke-width="1.5"></path><path d="M1257.29 544.41L1434.14 646.95" stroke="#132e65" stroke-width="1.5"></path><path d="M1275.6 696.1L1275.6 696.1" stroke="#132e65" stroke-width="1.5"></path><path d="M1275.6 696.1L1434.14 646.95" stroke="#132e65" stroke-width="1.5"></path><path d="M1275.6 696.1L1403.1 558.62" stroke="#132e65" stroke-width="1.5"></path><path d="M1275.6 696.1L1120.56 499.86" stroke="#132e65" stroke-width="1.5"></path><path d="M1441.37 -49.74L1441.37 -49.74" stroke="#132e65" stroke-width="1.5"></path><path d="M1441.37 -49.74L1409.8 40.17" stroke="#132e65" stroke-width="1.5"></path><path d="M1441.37 -49.74L1571.94 -42.54" stroke="#132e65" stroke-width="1.5"></path><path d="M1409.8 40.17L1409.8 40.17" stroke="#132e65" stroke-width="1.5"></path><path d="M1409.8 40.17L1424.05 188.58" stroke="#132e65" stroke-width="1.5"></path><path d="M1424.05 188.58L1424.05 188.58" stroke="#132e65" stroke-width="1.5"></path><path d="M1424.05 188.58L1566.95 225.65" stroke="#132e65" stroke-width="1.5"></path><path d="M1424.05 188.58L1390.66 358.36" stroke="#132e65" stroke-width="1.5"></path><path d="M1424.05 188.58L1253.8 235.09" stroke="#132e65" stroke-width="1.5"></path><path d="M1390.66 358.36L1390.66 358.36" stroke="#132e65" stroke-width="1.5"></path><path d="M1390.66 358.36L1253.8 235.09" stroke="#132e65" stroke-width="1.5"></path><path d="M1390.66 358.36L1576.64 376.93" stroke="#132e65" stroke-width="1.5"></path><path d="M1390.66 358.36L1403.1 558.62" stroke="#132e65" stroke-width="1.5"></path><path d="M1403.1 558.62L1403.1 558.62" stroke="#132e65" stroke-width="1.5"></path><path d="M1403.1 558.62L1434.14 646.95" stroke="#132e65" stroke-width="1.5"></path><path d="M1403.1 558.62L1550.36 646.29" stroke="#132e65" stroke-width="1.5"></path><path d="M1403.1 558.62L1569.88 494.11" stroke="#132e65" stroke-width="1.5"></path><path d="M1434.14 646.95L1434.14 646.95" stroke="#132e65" stroke-width="1.5"></path><path d="M1434.14 646.95L1550.36 646.29" stroke="#132e65" stroke-width="1.5"></path><path d="M1434.14 646.95L1569.88 494.11" stroke="#132e65" stroke-width="1.5"></path><path d="M1571.94 -42.54L1571.94 -42.54" stroke="#132e65" stroke-width="1.5"></path><path d="M1571.94 -42.54L1582.87 52.85" stroke="#132e65" stroke-width="1.5"></path><path d="M1582.87 52.85L1582.87 52.85" stroke="#132e65" stroke-width="1.5"></path><path d="M1582.87 52.85L1566.95 225.65" stroke="#132e65" stroke-width="1.5"></path><path d="M1582.87 52.85L1409.8 40.17" stroke="#132e65" stroke-width="1.5"></path><path d="M1582.87 52.85L1441.37 -49.74" stroke="#132e65" stroke-width="1.5"></path><path d="M1582.87 52.85L1424.05 188.58" stroke="#132e65" stroke-width="1.5"></path><path d="M1582.87 52.85L1260.94 83.52" stroke="#132e65" stroke-width="1.5"></path><path d="M1566.95 225.65L1566.95 225.65" stroke="#132e65" stroke-width="1.5"></path><path d="M1566.95 225.65L1576.64 376.93" stroke="#132e65" stroke-width="1.5"></path><path d="M1566.95 225.65L1390.66 358.36" stroke="#132e65" stroke-width="1.5"></path><path d="M1566.95 225.65L1409.8 40.17" stroke="#132e65" stroke-width="1.5"></path><path d="M1576.64 376.93L1576.64 376.93" stroke="#132e65" stroke-width="1.5"></path><path d="M1576.64 376.93L1569.88 494.11" stroke="#132e65" stroke-width="1.5"></path><path d="M1576.64 376.93L1424.05 188.58" stroke="#132e65" stroke-width="1.5"></path><path d="M1576.64 376.93L1403.1 558.62" stroke="#132e65" stroke-width="1.5"></path><path d="M1569.88 494.11L1569.88 494.11" stroke="#132e65" stroke-width="1.5"></path><path d="M1569.88 494.11L1550.36 646.29" stroke="#132e65" stroke-width="1.5"></path><path d="M1550.36 646.29L1550.36 646.29" stroke="#132e65" stroke-width="1.5"></path><path d="M1550.36 646.29L1576.64 376.93" stroke="#132e65" stroke-width="1.5"></path><path d="M1550.36 646.29L1275.6 696.1" stroke="#132e65" stroke-width="1.5"></path><path d="M1550.36 646.29L1257.29 544.41" stroke="#132e65" stroke-width="1.5"></path><circle r="5" cx="-106.31" cy="537.87" fill="#132e65"></circle><circle r="5" cx="-110.08" cy="647.62" fill="#132e65"></circle><circle r="5" cx="56" cy="355.4" fill="#132e65"></circle><circle r="5" cx="89.44" cy="509.12" fill="#132e65"></circle><circle r="5" cx="106.74" cy="669.36" fill="#132e65"></circle><circle r="5" cx="203.36" cy="388.68" fill="#132e65"></circle><circle r="5" cx="221.77" cy="497.12" fill="#132e65"></circle><circle r="5" cx="373.57" cy="350.66" fill="#132e65"></circle><circle r="5" cx="340.73" cy="548.03" fill="#132e65"></circle><circle r="5" cx="367.1" cy="682.31" fill="#132e65"></circle><circle r="5" cx="501.05" cy="346.23" fill="#132e65"></circle><circle r="5" cx="555.35" cy="498.56" fill="#132e65"></circle><circle r="5" cx="654.1" cy="355.21" fill="#132e65"></circle><circle r="5" cx="678.4" cy="550.74" fill="#132e65"></circle><circle r="5" cx="668.17" cy="675.08" fill="#132e65"></circle><circle r="5" cx="832.43" cy="105.58" fill="#132e65"></circle><circle r="5" cx="819.57" cy="392.96" fill="#132e65"></circle><circle r="5" cx="860.17" cy="561.12" fill="#132e65"></circle><circle r="5" cx="841.21" cy="680.46" fill="#132e65"></circle><circle r="5" cx="1009.6" cy="-51.73" fill="#132e65"></circle><circle r="5" cx="968.09" cy="40.88" fill="#132e65"></circle><circle r="5" cx="973.23" cy="194.91" fill="#132e65"></circle><circle r="5" cx="940.47" cy="388.96" fill="#132e65"></circle><circle r="5" cx="986.86" cy="682.05" fill="#132e65"></circle><circle r="5" cx="1132.78" cy="-68.5" fill="#132e65"></circle><circle r="5" cx="1119.99" cy="80.08" fill="#132e65"></circle><circle r="5" cx="1099.75" cy="258.26" fill="#132e65"></circle><circle r="5" cx="1133.18" cy="408.25" fill="#132e65"></circle><circle r="5" cx="1120.56" cy="499.86" fill="#132e65"></circle><circle r="5" cx="1122.28" cy="711.43" fill="#132e65"></circle><circle r="5" cx="1240.33" cy="-63.46" fill="#132e65"></circle><circle r="5" cx="1260.94" cy="83.52" fill="#132e65"></circle><circle r="5" cx="1253.8" cy="235.09" fill="#132e65"></circle><circle r="5" cx="1257.11" cy="373.43" fill="#132e65"></circle><circle r="5" cx="1257.29" cy="544.41" fill="#132e65"></circle><circle r="5" cx="1275.6" cy="696.1" fill="#132e65"></circle><circle r="5" cx="1441.37" cy="-49.74" fill="#132e65"></circle><circle r="5" cx="1409.8" cy="40.17" fill="#132e65"></circle><circle r="5" cx="1424.05" cy="188.58" fill="#132e65"></circle><circle r="5" cx="1390.66" cy="358.36" fill="#132e65"></circle><circle r="5" cx="1403.1" cy="558.62" fill="#132e65"></circle><circle r="5" cx="1434.14" cy="646.95" fill="#132e65"></circle><circle r="5" cx="1571.94" cy="-42.54" fill="#132e65"></circle><circle r="5" cx="1582.87" cy="52.85" fill="#132e65"></circle><circle r="5" cx="1566.95" cy="225.65" fill="#132e65"></circle><circle r="5" cx="1576.64" cy="376.93" fill="#132e65"></circle><circle r="5" cx="1569.88" cy="494.11" fill="#132e65"></circle><circle r="5" cx="1550.36" cy="646.29" fill="#132e65"></circle><path d="M48.71 710L48.71 710" stroke="hsl(228.5, 77.2%, 51.5%)" stroke-width="1.5"></path><path d="M48.71 710L-104.96 660.07" stroke="hsl(228.5, 77.2%, 51.5%)" stroke-width="1.5"></path><path d="M48.71 710L99.35 551.9" stroke="hsl(228.5, 77.2%, 51.5%)" stroke-width="1.5"></path><path d="M48.71 710L204.25 638.22" stroke="hsl(228.5, 77.2%, 51.5%)" stroke-width="1.5"></path><path d="M48.71 710L-69.01 492.13" stroke="hsl(228.5, 77.2%, 51.5%)" stroke-width="1.5"></path><path d="M48.71 710L343.72 652.2" stroke="hsl(228.5, 77.2%, 51.5%)" stroke-width="1.5"></path><path d="M48.71 710L260.41 487.94" stroke="hsl(228.5, 77.2%, 51.5%)" stroke-width="1.5"></path><path d="M660.82 399.19L660.82 399.19" stroke="hsl(228.5, 77.2%, 51.5%)" stroke-width="1.5"></path><path d="M660.82 399.19L643.7 512.58" stroke="hsl(228.5, 77.2%, 51.5%)" stroke-width="1.5"></path><path d="M660.82 399.19L811.38 340.99" stroke="hsl(228.5, 77.2%, 51.5%)" stroke-width="1.5"></path><path d="M660.82 399.19L494.82 531.95" stroke="hsl(228.5, 77.2%, 51.5%)" stroke-width="1.5"></path><path d="M660.82 399.19L811.68 548.95" stroke="hsl(228.5, 77.2%, 51.5%)" stroke-width="1.5"></path><path d="M955.49 399.24L955.49 399.24" stroke="hsl(228.5, 77.2%, 51.5%)" stroke-width="1.5"></path><path d="M955.49 399.24L976.68 532.13" stroke="hsl(228.5, 77.2%, 51.5%)" stroke-width="1.5"></path><path d="M955.49 399.24L1099.22 343.75" stroke="hsl(228.5, 77.2%, 51.5%)" stroke-width="1.5"></path><path d="M955.49 399.24L811.38 340.99" stroke="hsl(228.5, 77.2%, 51.5%)" stroke-width="1.5"></path><path d="M955.49 399.24L985.48 239.23" stroke="hsl(228.5, 77.2%, 51.5%)" stroke-width="1.5"></path><path d="M955.49 399.24L1127.68 492.69" stroke="hsl(228.5, 77.2%, 51.5%)" stroke-width="1.5"></path><path d="M1095.41 703.42L1095.41 703.42" stroke="hsl(228.5, 77.2%, 51.5%)" stroke-width="1.5"></path><path d="M1095.41 703.42L981.45 655.23" stroke="hsl(228.5, 77.2%, 51.5%)" stroke-width="1.5"></path><path d="M1095.41 703.42L1279.45 650.6" stroke="hsl(228.5, 77.2%, 51.5%)" stroke-width="1.5"></path><path d="M1095.41 703.42L976.68 532.13" stroke="hsl(228.5, 77.2%, 51.5%)" stroke-width="1.5"></path><path d="M1095.41 703.42L1127.68 492.69" stroke="hsl(228.5, 77.2%, 51.5%)" stroke-width="1.5"></path><path d="M1095.41 703.42L844.6 700.43" stroke="hsl(228.5, 77.2%, 51.5%)" stroke-width="1.5"></path><path d="M1095.41 703.42L1308.47 535.64" stroke="hsl(228.5, 77.2%, 51.5%)" stroke-width="1.5"></path><path d="M1300.14 239.44L1300.14 239.44" stroke="hsl(228.5, 77.2%, 51.5%)" stroke-width="1.5"></path><path d="M1300.14 239.44L1299.63 347.12" stroke="hsl(228.5, 77.2%, 51.5%)" stroke-width="1.5"></path><path d="M1300.14 239.44L1287.77 103.6" stroke="hsl(228.5, 77.2%, 51.5%)" stroke-width="1.5"></path><path d="M1300.14 239.44L1395.82 339.93" stroke="hsl(228.5, 77.2%, 51.5%)" stroke-width="1.5"></path><path d="M1300.14 239.44L1157.23 248.59" stroke="hsl(228.5, 77.2%, 51.5%)" stroke-width="1.5"></path><path d="M1300.14 239.44L1099.22 343.75" stroke="hsl(228.5, 77.2%, 51.5%)" stroke-width="1.5"></path><path d="M1430.4 40.39L1430.4 40.39" stroke="hsl(228.5, 77.2%, 51.5%)" stroke-width="1.5"></path><path d="M1430.4 40.39L1425.79 -46.74" stroke="hsl(228.5, 77.2%, 51.5%)" stroke-width="1.5"></path><path d="M1430.4 40.39L1577.26 59" stroke="hsl(228.5, 77.2%, 51.5%)" stroke-width="1.5"></path><path d="M1430.4 40.39L1287.77 103.6" stroke="hsl(228.5, 77.2%, 51.5%)" stroke-width="1.5"></path><path d="M1395.82 339.93L1395.82 339.93" stroke="hsl(228.5, 77.2%, 51.5%)" stroke-width="1.5"></path><path d="M1395.82 339.93L1299.63 347.12" stroke="hsl(228.5, 77.2%, 51.5%)" stroke-width="1.5"></path><path d="M1395.82 339.93L1442.54 497.6" stroke="hsl(228.5, 77.2%, 51.5%)" stroke-width="1.5"></path><path d="M1442.54 497.6L1442.54 497.6" stroke="hsl(228.5, 77.2%, 51.5%)" stroke-width="1.5"></path><path d="M1442.54 497.6L1308.47 535.64" stroke="hsl(228.5, 77.2%, 51.5%)" stroke-width="1.5"></path><path d="M1442.54 497.6L1601.2 498.7" stroke="hsl(228.5, 77.2%, 51.5%)" stroke-width="1.5"></path><path d="M1442.54 497.6L1548.96 657.55" stroke="hsl(228.5, 77.2%, 51.5%)" stroke-width="1.5"></path><path d="M1442.54 497.6L1416.3 694.09" stroke="hsl(228.5, 77.2%, 51.5%)" stroke-width="1.5"></path><path d="M1577.26 59L1577.26 59" stroke="hsl(228.5, 77.2%, 51.5%)" stroke-width="1.5"></path><path d="M1577.26 59L1554.71 -77.48" stroke="hsl(228.5, 77.2%, 51.5%)" stroke-width="1.5"></path><path d="M1577.26 59L1425.79 -46.74" stroke="hsl(228.5, 77.2%, 51.5%)" stroke-width="1.5"></path><path d="M1577.26 59L1612.11 241.79" stroke="hsl(228.5, 77.2%, 51.5%)" stroke-width="1.5"></path><path d="M1577.26 59L1287.77 103.6" stroke="hsl(228.5, 77.2%, 51.5%)" stroke-width="1.5"></path><path d="M1577.26 59L1303 -53.88" stroke="hsl(228.5, 77.2%, 51.5%)" stroke-width="1.5"></path><path d="M-69.01 492.13L-69.01 492.13" stroke="hsl(228.5, 77.2%, 51.5%)" stroke-width="1.5"></path><path d="M-69.01 492.13L-104.96 660.07" stroke="hsl(228.5, 77.2%, 51.5%)" stroke-width="1.5"></path><path d="M-69.01 492.13L99.35 551.9" stroke="hsl(228.5, 77.2%, 51.5%)" stroke-width="1.5"></path><path d="M-69.01 492.13L204.25 638.22" stroke="hsl(228.5, 77.2%, 51.5%)" stroke-width="1.5"></path><path d="M-69.01 492.13L260.41 487.94" stroke="hsl(228.5, 77.2%, 51.5%)" stroke-width="1.5"></path><path d="M-104.96 660.07L-104.96 660.07" stroke="hsl(228.5, 77.2%, 51.5%)" stroke-width="1.5"></path><path d="M99.35 551.9L99.35 551.9" stroke="hsl(228.5, 77.2%, 51.5%)" stroke-width="1.5"></path><path d="M99.35 551.9L204.25 638.22" stroke="hsl(228.5, 77.2%, 51.5%)" stroke-width="1.5"></path><path d="M99.35 551.9L260.41 487.94" stroke="hsl(228.5, 77.2%, 51.5%)" stroke-width="1.5"></path><path d="M260.41 487.94L260.41 487.94" stroke="hsl(228.5, 77.2%, 51.5%)" stroke-width="1.5"></path><path d="M260.41 487.94L340.92 522.47" stroke="hsl(228.5, 77.2%, 51.5%)" stroke-width="1.5"></path><path d="M260.41 487.94L204.25 638.22" stroke="hsl(228.5, 77.2%, 51.5%)" stroke-width="1.5"></path><path d="M260.41 487.94L343.72 652.2" stroke="hsl(228.5, 77.2%, 51.5%)" stroke-width="1.5"></path><path d="M260.41 487.94L494.82 531.95" stroke="hsl(228.5, 77.2%, 51.5%)" stroke-width="1.5"></path><path d="M204.25 638.22L204.25 638.22" stroke="hsl(228.5, 77.2%, 51.5%)" stroke-width="1.5"></path><path d="M204.25 638.22L343.72 652.2" stroke="hsl(228.5, 77.2%, 51.5%)" stroke-width="1.5"></path><path d="M340.92 522.47L340.92 522.47" stroke="hsl(228.5, 77.2%, 51.5%)" stroke-width="1.5"></path><path d="M340.92 522.47L343.72 652.2" stroke="hsl(228.5, 77.2%, 51.5%)" stroke-width="1.5"></path><path d="M340.92 522.47L494.82 531.95" stroke="hsl(228.5, 77.2%, 51.5%)" stroke-width="1.5"></path><path d="M340.92 522.47L204.25 638.22" stroke="hsl(228.5, 77.2%, 51.5%)" stroke-width="1.5"></path><path d="M340.92 522.47L490.24 708.36" stroke="hsl(228.5, 77.2%, 51.5%)" stroke-width="1.5"></path><path d="M340.92 522.47L99.35 551.9" stroke="hsl(228.5, 77.2%, 51.5%)" stroke-width="1.5"></path><path d="M343.72 652.2L343.72 652.2" stroke="hsl(228.5, 77.2%, 51.5%)" stroke-width="1.5"></path><path d="M343.72 652.2L490.24 708.36" stroke="hsl(228.5, 77.2%, 51.5%)" stroke-width="1.5"></path><path d="M343.72 652.2L494.82 531.95" stroke="hsl(228.5, 77.2%, 51.5%)" stroke-width="1.5"></path><path d="M343.72 652.2L99.35 551.9" stroke="hsl(228.5, 77.2%, 51.5%)" stroke-width="1.5"></path><path d="M494.82 531.95L494.82 531.95" stroke="hsl(228.5, 77.2%, 51.5%)" stroke-width="1.5"></path><path d="M494.82 531.95L643.7 512.58" stroke="hsl(228.5, 77.2%, 51.5%)" stroke-width="1.5"></path><path d="M494.82 531.95L490.24 708.36" stroke="hsl(228.5, 77.2%, 51.5%)" stroke-width="1.5"></path><path d="M490.24 708.36L490.24 708.36" stroke="hsl(228.5, 77.2%, 51.5%)" stroke-width="1.5"></path><path d="M490.24 708.36L688.35 700.28" stroke="hsl(228.5, 77.2%, 51.5%)" stroke-width="1.5"></path><path d="M643.7 512.58L643.7 512.58" stroke="hsl(228.5, 77.2%, 51.5%)" stroke-width="1.5"></path><path d="M688.35 700.28L688.35 700.28" stroke="hsl(228.5, 77.2%, 51.5%)" stroke-width="1.5"></path><path d="M688.35 700.28L844.6 700.43" stroke="hsl(228.5, 77.2%, 51.5%)" stroke-width="1.5"></path><path d="M688.35 700.28L643.7 512.58" stroke="hsl(228.5, 77.2%, 51.5%)" stroke-width="1.5"></path><path d="M688.35 700.28L811.68 548.95" stroke="hsl(228.5, 77.2%, 51.5%)" stroke-width="1.5"></path><path d="M811.38 340.99L811.38 340.99" stroke="hsl(228.5, 77.2%, 51.5%)" stroke-width="1.5"></path><path d="M811.38 340.99L985.48 239.23" stroke="hsl(228.5, 77.2%, 51.5%)" stroke-width="1.5"></path><path d="M811.38 340.99L811.68 548.95" stroke="hsl(228.5, 77.2%, 51.5%)" stroke-width="1.5"></path><path d="M811.38 340.99L643.7 512.58" stroke="hsl(228.5, 77.2%, 51.5%)" stroke-width="1.5"></path><path d="M811.38 340.99L976.68 532.13" stroke="hsl(228.5, 77.2%, 51.5%)" stroke-width="1.5"></path><path d="M811.68 548.95L811.68 548.95" stroke="hsl(228.5, 77.2%, 51.5%)" stroke-width="1.5"></path><path d="M811.68 548.95L844.6 700.43" stroke="hsl(228.5, 77.2%, 51.5%)" stroke-width="1.5"></path><path d="M811.68 548.95L976.68 532.13" stroke="hsl(228.5, 77.2%, 51.5%)" stroke-width="1.5"></path><path d="M811.68 548.95L643.7 512.58" stroke="hsl(228.5, 77.2%, 51.5%)" stroke-width="1.5"></path><path d="M844.6 700.43L844.6 700.43" stroke="hsl(228.5, 77.2%, 51.5%)" stroke-width="1.5"></path><path d="M844.6 700.43L981.45 655.23" stroke="hsl(228.5, 77.2%, 51.5%)" stroke-width="1.5"></path><path d="M844.6 700.43L976.68 532.13" stroke="hsl(228.5, 77.2%, 51.5%)" stroke-width="1.5"></path><path d="M985.48 239.23L985.48 239.23" stroke="hsl(228.5, 77.2%, 51.5%)" stroke-width="1.5"></path><path d="M985.48 239.23L1099.22 343.75" stroke="hsl(228.5, 77.2%, 51.5%)" stroke-width="1.5"></path><path d="M976.68 532.13L976.68 532.13" stroke="hsl(228.5, 77.2%, 51.5%)" stroke-width="1.5"></path><path d="M976.68 532.13L981.45 655.23" stroke="hsl(228.5, 77.2%, 51.5%)" stroke-width="1.5"></path><path d="M981.45 655.23L981.45 655.23" stroke="hsl(228.5, 77.2%, 51.5%)" stroke-width="1.5"></path><path d="M1157.23 248.59L1157.23 248.59" stroke="hsl(228.5, 77.2%, 51.5%)" stroke-width="1.5"></path><path d="M1157.23 248.59L1099.22 343.75" stroke="hsl(228.5, 77.2%, 51.5%)" stroke-width="1.5"></path><path d="M1157.23 248.59L985.48 239.23" stroke="hsl(228.5, 77.2%, 51.5%)" stroke-width="1.5"></path><path d="M1157.23 248.59L1299.63 347.12" stroke="hsl(228.5, 77.2%, 51.5%)" stroke-width="1.5"></path><path d="M1157.23 248.59L1287.77 103.6" stroke="hsl(228.5, 77.2%, 51.5%)" stroke-width="1.5"></path><path d="M1099.22 343.75L1099.22 343.75" stroke="hsl(228.5, 77.2%, 51.5%)" stroke-width="1.5"></path><path d="M1099.22 343.75L1127.68 492.69" stroke="hsl(228.5, 77.2%, 51.5%)" stroke-width="1.5"></path><path d="M1127.68 492.69L1127.68 492.69" stroke="hsl(228.5, 77.2%, 51.5%)" stroke-width="1.5"></path><path d="M1127.68 492.69L976.68 532.13" stroke="hsl(228.5, 77.2%, 51.5%)" stroke-width="1.5"></path><path d="M1127.68 492.69L1308.47 535.64" stroke="hsl(228.5, 77.2%, 51.5%)" stroke-width="1.5"></path><path d="M1127.68 492.69L981.45 655.23" stroke="hsl(228.5, 77.2%, 51.5%)" stroke-width="1.5"></path><path d="M1303 -53.88L1303 -53.88" stroke="hsl(228.5, 77.2%, 51.5%)" stroke-width="1.5"></path><path d="M1303 -53.88L1425.79 -46.74" stroke="hsl(228.5, 77.2%, 51.5%)" stroke-width="1.5"></path><path d="M1303 -53.88L1287.77 103.6" stroke="hsl(228.5, 77.2%, 51.5%)" stroke-width="1.5"></path><path d="M1287.77 103.6L1287.77 103.6" stroke="hsl(228.5, 77.2%, 51.5%)" stroke-width="1.5"></path><path d="M1299.63 347.12L1299.63 347.12" stroke="hsl(228.5, 77.2%, 51.5%)" stroke-width="1.5"></path><path d="M1299.63 347.12L1308.47 535.64" stroke="hsl(228.5, 77.2%, 51.5%)" stroke-width="1.5"></path><path d="M1299.63 347.12L1099.22 343.75" stroke="hsl(228.5, 77.2%, 51.5%)" stroke-width="1.5"></path><path d="M1308.47 535.64L1308.47 535.64" stroke="hsl(228.5, 77.2%, 51.5%)" stroke-width="1.5"></path><path d="M1308.47 535.64L1279.45 650.6" stroke="hsl(228.5, 77.2%, 51.5%)" stroke-width="1.5"></path><path d="M1308.47 535.64L1416.3 694.09" stroke="hsl(228.5, 77.2%, 51.5%)" stroke-width="1.5"></path><path d="M1308.47 535.64L1395.82 339.93" stroke="hsl(228.5, 77.2%, 51.5%)" stroke-width="1.5"></path><path d="M1279.45 650.6L1279.45 650.6" stroke="hsl(228.5, 77.2%, 51.5%)" stroke-width="1.5"></path><path d="M1279.45 650.6L1416.3 694.09" stroke="hsl(228.5, 77.2%, 51.5%)" stroke-width="1.5"></path><path d="M1279.45 650.6L1127.68 492.69" stroke="hsl(228.5, 77.2%, 51.5%)" stroke-width="1.5"></path><path d="M1425.79 -46.74L1425.79 -46.74" stroke="hsl(228.5, 77.2%, 51.5%)" stroke-width="1.5"></path><path d="M1425.79 -46.74L1554.71 -77.48" stroke="hsl(228.5, 77.2%, 51.5%)" stroke-width="1.5"></path><path d="M1425.79 -46.74L1287.77 103.6" stroke="hsl(228.5, 77.2%, 51.5%)" stroke-width="1.5"></path><path d="M1416.3 694.09L1416.3 694.09" stroke="hsl(228.5, 77.2%, 51.5%)" stroke-width="1.5"></path><path d="M1416.3 694.09L1548.96 657.55" stroke="hsl(228.5, 77.2%, 51.5%)" stroke-width="1.5"></path><path d="M1554.71 -77.48L1554.71 -77.48" stroke="hsl(228.5, 77.2%, 51.5%)" stroke-width="1.5"></path><path d="M1554.71 -77.48L1430.4 40.39" stroke="hsl(228.5, 77.2%, 51.5%)" stroke-width="1.5"></path><path d="M1554.71 -77.48L1303 -53.88" stroke="hsl(228.5, 77.2%, 51.5%)" stroke-width="1.5"></path><path d="M1554.71 -77.48L1287.77 103.6" stroke="hsl(228.5, 77.2%, 51.5%)" stroke-width="1.5"></path><path d="M1554.71 -77.48L1612.11 241.79" stroke="hsl(228.5, 77.2%, 51.5%)" stroke-width="1.5"></path><path d="M1612.11 241.79L1612.11 241.79" stroke="hsl(228.5, 77.2%, 51.5%)" stroke-width="1.5"></path><path d="M1612.11 241.79L1395.82 339.93" stroke="hsl(228.5, 77.2%, 51.5%)" stroke-width="1.5"></path><path d="M1612.11 241.79L1601.2 498.7" stroke="hsl(228.5, 77.2%, 51.5%)" stroke-width="1.5"></path><path d="M1612.11 241.79L1430.4 40.39" stroke="hsl(228.5, 77.2%, 51.5%)" stroke-width="1.5"></path><path d="M1612.11 241.79L1442.54 497.6" stroke="hsl(228.5, 77.2%, 51.5%)" stroke-width="1.5"></path><path d="M1601.2 498.7L1601.2 498.7" stroke="hsl(228.5, 77.2%, 51.5%)" stroke-width="1.5"></path><path d="M1601.2 498.7L1548.96 657.55" stroke="hsl(228.5, 77.2%, 51.5%)" stroke-width="1.5"></path><path d="M1601.2 498.7L1395.82 339.93" stroke="hsl(228.5, 77.2%, 51.5%)" stroke-width="1.5"></path><path d="M1601.2 498.7L1416.3 694.09" stroke="hsl(228.5, 77.2%, 51.5%)" stroke-width="1.5"></path><path d="M1601.2 498.7L1308.47 535.64" stroke="hsl(228.5, 77.2%, 51.5%)" stroke-width="1.5"></path><path d="M1548.96 657.55L1548.96 657.55" stroke="hsl(228.5, 77.2%, 51.5%)" stroke-width="1.5"></path><circle r="25" cx="48.71" cy="710" fill="url(&quot;#SvgjsRadialGradient1001&quot;)"></circle><circle r="25" cx="660.82" cy="399.19" fill="url(&quot;#SvgjsRadialGradient1001&quot;)"></circle><circle r="25" cx="955.49" cy="399.24" fill="url(&quot;#SvgjsRadialGradient1001&quot;)"></circle><circle r="25" cx="1095.41" cy="703.42" fill="url(&quot;#SvgjsRadialGradient1001&quot;)"></circle><circle r="25" cx="1300.14" cy="239.44" fill="url(&quot;#SvgjsRadialGradient1001&quot;)"></circle><circle r="25" cx="1430.4" cy="40.39" fill="url(&quot;#SvgjsRadialGradient1001&quot;)"></circle><circle r="25" cx="1395.82" cy="339.93" fill="url(&quot;#SvgjsRadialGradient1001&quot;)"></circle><circle r="25" cx="1442.54" cy="497.6" fill="url(&quot;#SvgjsRadialGradient1001&quot;)"></circle><circle r="25" cx="1577.26" cy="59" fill="url(&quot;#SvgjsRadialGradient1001&quot;)"></circle><circle r="5" cx="-69.01" cy="492.13" fill="#8b9ad9"></circle><circle r="5" cx="-104.96" cy="660.07" fill="#8b9ad9"></circle><circle r="5" cx="99.35" cy="551.9" fill="#8b9ad9"></circle><circle r="5" cx="260.41" cy="487.94" fill="#8b9ad9"></circle><circle r="5" cx="204.25" cy="638.22" fill="#8b9ad9"></circle><circle r="5" cx="340.92" cy="522.47" fill="#8b9ad9"></circle><circle r="5" cx="343.72" cy="652.2" fill="#8b9ad9"></circle><circle r="5" cx="494.82" cy="531.95" fill="#8b9ad9"></circle><circle r="5" cx="490.24" cy="708.36" fill="#8b9ad9"></circle><circle r="5" cx="643.7" cy="512.58" fill="#8b9ad9"></circle><circle r="5" cx="688.35" cy="700.28" fill="#8b9ad9"></circle><circle r="5" cx="811.38" cy="340.99" fill="#8b9ad9"></circle><circle r="5" cx="811.68" cy="548.95" fill="#8b9ad9"></circle><circle r="5" cx="844.6" cy="700.43" fill="#8b9ad9"></circle><circle r="5" cx="985.48" cy="239.23" fill="#8b9ad9"></circle><circle r="5" cx="976.68" cy="532.13" fill="#8b9ad9"></circle><circle r="5" cx="981.45" cy="655.23" fill="#8b9ad9"></circle><circle r="5" cx="1157.23" cy="248.59" fill="#8b9ad9"></circle><circle r="5" cx="1099.22" cy="343.75" fill="#8b9ad9"></circle><circle r="5" cx="1127.68" cy="492.69" fill="#8b9ad9"></circle><circle r="5" cx="1303" cy="-53.88" fill="#8b9ad9"></circle><circle r="5" cx="1287.77" cy="103.6" fill="#8b9ad9"></circle><circle r="5" cx="1299.63" cy="347.12" fill="#8b9ad9"></circle><circle r="5" cx="1308.47" cy="535.64" fill="#8b9ad9"></circle><circle r="5" cx="1279.45" cy="650.6" fill="#8b9ad9"></circle><circle r="5" cx="1425.79" cy="-46.74" fill="#8b9ad9"></circle><circle r="5" cx="1416.3" cy="694.09" fill="#8b9ad9"></circle><circle r="5" cx="1554.71" cy="-77.48" fill="#8b9ad9"></circle><circle r="5" cx="1612.11" cy="241.79" fill="#8b9ad9"></circle><circle r="5" cx="1601.2" cy="498.7" fill="#8b9ad9"></circle><circle r="5" cx="1548.96" cy="657.55" fill="#8b9ad9"></circle></g><defs><mask id="SvgjsMask1000"><rect width="1440" height="560" fill="#ffffff"></rect></mask><radialGradient id="SvgjsRadialGradient1001"><stop stop-color="#ffffff" offset="0.1"></stop><stop stop-color="#1735b3" offset="0.2"></stop><stop stop-color="rgba(23, 53, 179, 0)" offset="1"></stop></radialGradient></defs></svg>