<svg xmlns="http://www.w3.org/2000/svg" version="1.1" xmlns:xlink="http://www.w3.org/1999/xlink" xmlns:svgjs="http://svgjs.dev/svgjs" width="1440" height="560" preserveAspectRatio="none" viewBox="0 0 1440 560"><g mask="url(&quot;#SvgjsMask1288&quot;)" fill="none"><rect width="1440" height="560" x="0" y="0" fill="url(&quot;#SvgjsRadialGradient1289&quot;)"></rect><path d="M1440 0L1434.12 0L1440 232.96z" fill="rgba(255, 255, 255, .1)"></path><path d="M1434.12 0L1440 232.96L1440 335.47L820.2799999999999 0z" fill="rgba(255, 255, 255, .075)"></path><path d="M820.28 0L1440 335.47L1440 427.59000000000003L809.55 0z" fill="rgba(255, 255, 255, .05)"></path><path d="M809.55 0L1440 427.59000000000003L1440 454.37L768.4599999999999 0z" fill="rgba(255, 255, 255, .025)"></path><path d="M0 560L92.47 560L0 488.72z" fill="rgba(0, 0, 0, .1)"></path><path d="M0 488.72L92.47 560L405.49 560L0 338.75z" fill="rgba(0, 0, 0, .075)"></path><path d="M0 338.75L405.49 560L579.58 560L0 144.52z" fill="rgba(0, 0, 0, .05)"></path><path d="M0 144.51999999999998L579.58 560L879.01 560L0 139.64z" fill="rgba(0, 0, 0, .025)"></path></g><defs><mask id="SvgjsMask1288"><rect width="1440" height="560" fill="#ffffff"></rect></mask><radialGradient cx="100%" cy="0%" r="1545.06" gradientUnits="userSpaceOnUse" id="SvgjsRadialGradient1289"><stop stop-color="#0e2a47" offset="0"></stop><stop stop-color="rgba(54, 85, 126, 1)" offset="1"></stop></radialGradient></defs></svg>